<svg viewBox="0 0 24 24" xmlns="http://www.w3.org/2000/svg" xmlns:xlink="http://www.w3.org/1999/xlink" width="24.000000" height="24.000000" fill="none">
	<rect id="shopping-bag-line 1" width="24.000000" height="24.000000" x="0.000000" y="0.000000" fill="rgb(255,255,255)" fill-opacity="0" />
	<path id="Vector" d="M0 0L24 0L24 24L0 24L0 0Z" fill-rule="nonzero" />
	<path id="Vector" d="M6.99985 8L6.99985 6C6.99985 4.67392 7.06217 2.93768 7.99985 2C8.93754 1.06232 10.6738 1 11.9999 1C13.3259 1 15.0622 1.06232 15.9999 2C16.9375 2.93768 16.9999 4.67392 16.9999 6L16.9999 8L19.9999 8C20.2651 8 20.8123 7.81246 20.9999 8C21.1874 8.18754 20.9999 8.73478 20.9999 9L20.9999 21C20.9999 21.2652 21.1874 21.8125 20.9999 22C20.8123 22.1875 20.2651 22 19.9999 22L3.99985 22C3.73464 22 3.18739 22.1875 2.99985 22C2.81232 21.8125 2.99985 21.2652 2.99985 21L2.99985 9C2.99985 8.73478 2.81232 8.18754 2.99985 8C3.18739 7.81246 3.73464 8 3.99985 8L6.99985 8ZM6.99985 10L4.99985 10L4.99985 20L18.9999 20L18.9999 10L16.9999 10L16.9999 12L14.9999 12L14.9999 10L8.99985 10L8.99985 12L6.99985 12L6.99985 10ZM8.99985 8L14.9999 8L14.9999 6C14.9999 5.20435 14.5625 4.56261 13.9999 4C13.4372 3.43739 12.7955 3 11.9999 3C11.2042 3 10.5625 3.43739 9.99985 4C9.43724 4.56261 8.99985 5.20435 8.99985 6L8.99985 8Z" fill="rgb(196,196,196)" fill-rule="nonzero" />
</svg>
